<mxfile host="app.diagrams.net" modified="2022-01-31T22:33:24.609Z" agent="5.0 (X11; Linux x86_64) AppleWebKit/537.36 (KHTML, like Gecko) Chrome/97.0.4692.71 Safari/537.36" etag="lqgIcOuWMYeBxhVYEyaW" version="16.5.2" type="github">
  <diagram id="C5RBs43oDa-KdzZeNtuy" name="Page-1">
    <mxGraphModel dx="1965" dy="1807" grid="1" gridSize="10" guides="1" tooltips="1" connect="1" arrows="1" fold="1" page="1" pageScale="1" pageWidth="827" pageHeight="1169" math="0" shadow="0">
      <root>
        <mxCell id="WIyWlLk6GJQsqaUBKTNV-0" />
        <mxCell id="WIyWlLk6GJQsqaUBKTNV-1" parent="WIyWlLk6GJQsqaUBKTNV-0" />
        <mxCell id="OJwY6KHNOnWyT61h1TXV-4" value="Items" style="rounded=0;whiteSpace=wrap;html=1;" vertex="1" parent="WIyWlLk6GJQsqaUBKTNV-1">
          <mxGeometry x="910" y="205" width="120" height="60" as="geometry" />
        </mxCell>
        <mxCell id="OJwY6KHNOnWyT61h1TXV-0" value="Characters" style="rounded=0;whiteSpace=wrap;html=1;" vertex="1" parent="WIyWlLk6GJQsqaUBKTNV-1">
          <mxGeometry x="210" y="205" width="120" height="60" as="geometry" />
        </mxCell>
        <mxCell id="OJwY6KHNOnWyT61h1TXV-1" value="Weapons" style="rounded=0;whiteSpace=wrap;html=1;" vertex="1" parent="WIyWlLk6GJQsqaUBKTNV-1">
          <mxGeometry x="1150" y="120" width="120" height="60" as="geometry" />
        </mxCell>
        <mxCell id="OJwY6KHNOnWyT61h1TXV-2" value="Equipment" style="rounded=0;whiteSpace=wrap;html=1;" vertex="1" parent="WIyWlLk6GJQsqaUBKTNV-1">
          <mxGeometry x="1150" y="210" width="120" height="60" as="geometry" />
        </mxCell>
        <mxCell id="OJwY6KHNOnWyT61h1TXV-3" value="Consumables" style="rounded=0;whiteSpace=wrap;html=1;" vertex="1" parent="WIyWlLk6GJQsqaUBKTNV-1">
          <mxGeometry x="1150" y="310" width="120" height="60" as="geometry" />
        </mxCell>
        <mxCell id="OJwY6KHNOnWyT61h1TXV-6" value="" style="ellipse;whiteSpace=wrap;html=1;aspect=fixed;" vertex="1" parent="WIyWlLk6GJQsqaUBKTNV-1">
          <mxGeometry x="1080" y="220" width="30" height="30" as="geometry" />
        </mxCell>
        <mxCell id="OJwY6KHNOnWyT61h1TXV-8" value="" style="endArrow=classic;html=1;rounded=0;entryX=0;entryY=0.5;entryDx=0;entryDy=0;exitX=0.5;exitY=0;exitDx=0;exitDy=0;" edge="1" parent="WIyWlLk6GJQsqaUBKTNV-1" source="OJwY6KHNOnWyT61h1TXV-6">
          <mxGeometry width="50" height="50" relative="1" as="geometry">
            <mxPoint x="1060" y="295" as="sourcePoint" />
            <mxPoint x="1150" y="145" as="targetPoint" />
          </mxGeometry>
        </mxCell>
        <mxCell id="OJwY6KHNOnWyT61h1TXV-9" value="" style="endArrow=classic;html=1;rounded=0;entryX=0;entryY=0.5;entryDx=0;entryDy=0;exitX=1;exitY=0.5;exitDx=0;exitDy=0;" edge="1" parent="WIyWlLk6GJQsqaUBKTNV-1" source="OJwY6KHNOnWyT61h1TXV-6">
          <mxGeometry width="50" height="50" relative="1" as="geometry">
            <mxPoint x="1060" y="295" as="sourcePoint" />
            <mxPoint x="1150" y="235" as="targetPoint" />
          </mxGeometry>
        </mxCell>
        <mxCell id="OJwY6KHNOnWyT61h1TXV-10" value="" style="endArrow=classic;html=1;rounded=0;entryX=0;entryY=0.5;entryDx=0;entryDy=0;exitX=0.5;exitY=1;exitDx=0;exitDy=0;" edge="1" parent="WIyWlLk6GJQsqaUBKTNV-1" source="OJwY6KHNOnWyT61h1TXV-6">
          <mxGeometry width="50" height="50" relative="1" as="geometry">
            <mxPoint x="1060" y="295" as="sourcePoint" />
            <mxPoint x="1150" y="335" as="targetPoint" />
          </mxGeometry>
        </mxCell>
        <mxCell id="OJwY6KHNOnWyT61h1TXV-11" value="" style="endArrow=none;html=1;rounded=0;entryX=0;entryY=0.5;entryDx=0;entryDy=0;exitX=1;exitY=0.5;exitDx=0;exitDy=0;" edge="1" parent="WIyWlLk6GJQsqaUBKTNV-1" source="OJwY6KHNOnWyT61h1TXV-4" target="OJwY6KHNOnWyT61h1TXV-6">
          <mxGeometry width="50" height="50" relative="1" as="geometry">
            <mxPoint x="1060" y="135" as="sourcePoint" />
            <mxPoint x="1110" y="85" as="targetPoint" />
          </mxGeometry>
        </mxCell>
        <mxCell id="OJwY6KHNOnWyT61h1TXV-12" value="Player Characters" style="rounded=0;whiteSpace=wrap;html=1;" vertex="1" parent="WIyWlLk6GJQsqaUBKTNV-1">
          <mxGeometry x="-90" y="150" width="120" height="60" as="geometry" />
        </mxCell>
        <mxCell id="OJwY6KHNOnWyT61h1TXV-13" value="NPC&#39;s" style="rounded=0;whiteSpace=wrap;html=1;" vertex="1" parent="WIyWlLk6GJQsqaUBKTNV-1">
          <mxGeometry x="-90" y="250" width="120" height="60" as="geometry" />
        </mxCell>
        <mxCell id="OJwY6KHNOnWyT61h1TXV-14" value="Animals" style="rounded=0;whiteSpace=wrap;html=1;" vertex="1" parent="WIyWlLk6GJQsqaUBKTNV-1">
          <mxGeometry x="-165" y="440" width="120" height="60" as="geometry" />
        </mxCell>
        <mxCell id="OJwY6KHNOnWyT61h1TXV-16" value="Scientists" style="rounded=0;whiteSpace=wrap;html=1;" vertex="1" parent="WIyWlLk6GJQsqaUBKTNV-1">
          <mxGeometry y="440" width="120" height="60" as="geometry" />
        </mxCell>
        <mxCell id="OJwY6KHNOnWyT61h1TXV-17" value="" style="ellipse;whiteSpace=wrap;html=1;aspect=fixed;" vertex="1" parent="WIyWlLk6GJQsqaUBKTNV-1">
          <mxGeometry x="-45" y="350" width="30" height="30" as="geometry" />
        </mxCell>
        <mxCell id="OJwY6KHNOnWyT61h1TXV-18" value="" style="endArrow=classic;html=1;rounded=0;exitX=0.5;exitY=1;exitDx=0;exitDy=0;entryX=0.5;entryY=0;entryDx=0;entryDy=0;" edge="1" parent="WIyWlLk6GJQsqaUBKTNV-1" source="OJwY6KHNOnWyT61h1TXV-13" target="OJwY6KHNOnWyT61h1TXV-17">
          <mxGeometry width="50" height="50" relative="1" as="geometry">
            <mxPoint x="-120" y="270" as="sourcePoint" />
            <mxPoint x="-70" y="220" as="targetPoint" />
          </mxGeometry>
        </mxCell>
        <mxCell id="OJwY6KHNOnWyT61h1TXV-19" value="" style="endArrow=classic;html=1;rounded=0;entryX=0.5;entryY=0;entryDx=0;entryDy=0;exitX=0;exitY=1;exitDx=0;exitDy=0;" edge="1" parent="WIyWlLk6GJQsqaUBKTNV-1" source="OJwY6KHNOnWyT61h1TXV-17" target="OJwY6KHNOnWyT61h1TXV-14">
          <mxGeometry width="50" height="50" relative="1" as="geometry">
            <mxPoint x="-20" y="270" as="sourcePoint" />
            <mxPoint x="30" y="220" as="targetPoint" />
          </mxGeometry>
        </mxCell>
        <mxCell id="OJwY6KHNOnWyT61h1TXV-20" value="" style="endArrow=classic;html=1;rounded=0;exitX=1;exitY=1;exitDx=0;exitDy=0;entryX=0.5;entryY=0;entryDx=0;entryDy=0;" edge="1" parent="WIyWlLk6GJQsqaUBKTNV-1" source="OJwY6KHNOnWyT61h1TXV-17" target="OJwY6KHNOnWyT61h1TXV-16">
          <mxGeometry width="50" height="50" relative="1" as="geometry">
            <mxPoint x="-20" y="270" as="sourcePoint" />
            <mxPoint x="30" y="220" as="targetPoint" />
          </mxGeometry>
        </mxCell>
        <mxCell id="OJwY6KHNOnWyT61h1TXV-22" value="" style="ellipse;whiteSpace=wrap;html=1;aspect=fixed;" vertex="1" parent="WIyWlLk6GJQsqaUBKTNV-1">
          <mxGeometry x="120" y="220" width="30" height="30" as="geometry" />
        </mxCell>
        <mxCell id="OJwY6KHNOnWyT61h1TXV-23" value="" style="endArrow=classic;html=1;rounded=0;entryX=1;entryY=0.5;entryDx=0;entryDy=0;exitX=0;exitY=0.5;exitDx=0;exitDy=0;" edge="1" parent="WIyWlLk6GJQsqaUBKTNV-1" source="OJwY6KHNOnWyT61h1TXV-22" target="OJwY6KHNOnWyT61h1TXV-12">
          <mxGeometry width="50" height="50" relative="1" as="geometry">
            <mxPoint x="20" y="270" as="sourcePoint" />
            <mxPoint x="70" y="220" as="targetPoint" />
          </mxGeometry>
        </mxCell>
        <mxCell id="OJwY6KHNOnWyT61h1TXV-24" value="" style="endArrow=classic;html=1;rounded=0;exitX=0;exitY=0.5;exitDx=0;exitDy=0;entryX=1;entryY=0.5;entryDx=0;entryDy=0;" edge="1" parent="WIyWlLk6GJQsqaUBKTNV-1" source="OJwY6KHNOnWyT61h1TXV-22" target="OJwY6KHNOnWyT61h1TXV-13">
          <mxGeometry width="50" height="50" relative="1" as="geometry">
            <mxPoint x="20" y="270" as="sourcePoint" />
            <mxPoint x="70" y="220" as="targetPoint" />
          </mxGeometry>
        </mxCell>
        <mxCell id="OJwY6KHNOnWyT61h1TXV-25" value="" style="endArrow=none;html=1;rounded=0;entryX=0;entryY=0.5;entryDx=0;entryDy=0;exitX=1;exitY=0.5;exitDx=0;exitDy=0;" edge="1" parent="WIyWlLk6GJQsqaUBKTNV-1" source="OJwY6KHNOnWyT61h1TXV-22" target="OJwY6KHNOnWyT61h1TXV-0">
          <mxGeometry width="50" height="50" relative="1" as="geometry">
            <mxPoint x="20" y="270" as="sourcePoint" />
            <mxPoint x="70" y="220" as="targetPoint" />
          </mxGeometry>
        </mxCell>
        <mxCell id="OJwY6KHNOnWyT61h1TXV-26" value="Recruitable" style="rounded=0;whiteSpace=wrap;html=1;" vertex="1" parent="WIyWlLk6GJQsqaUBKTNV-1">
          <mxGeometry x="-180" y="-10" width="120" height="60" as="geometry" />
        </mxCell>
        <mxCell id="OJwY6KHNOnWyT61h1TXV-27" value="Main Character" style="rounded=0;whiteSpace=wrap;html=1;" vertex="1" parent="WIyWlLk6GJQsqaUBKTNV-1">
          <mxGeometry x="10" y="-10" width="120" height="60" as="geometry" />
        </mxCell>
        <mxCell id="OJwY6KHNOnWyT61h1TXV-28" value="" style="ellipse;whiteSpace=wrap;html=1;aspect=fixed;" vertex="1" parent="WIyWlLk6GJQsqaUBKTNV-1">
          <mxGeometry x="-45" y="80" width="30" height="30" as="geometry" />
        </mxCell>
        <mxCell id="OJwY6KHNOnWyT61h1TXV-29" value="" style="endArrow=none;html=1;rounded=0;entryX=0.5;entryY=1;entryDx=0;entryDy=0;exitX=0.5;exitY=0;exitDx=0;exitDy=0;" edge="1" parent="WIyWlLk6GJQsqaUBKTNV-1" source="OJwY6KHNOnWyT61h1TXV-12" target="OJwY6KHNOnWyT61h1TXV-28">
          <mxGeometry width="50" height="50" relative="1" as="geometry">
            <mxPoint x="-170" y="220" as="sourcePoint" />
            <mxPoint x="-120" y="170" as="targetPoint" />
          </mxGeometry>
        </mxCell>
        <mxCell id="OJwY6KHNOnWyT61h1TXV-30" value="" style="endArrow=classic;html=1;rounded=0;entryX=0.5;entryY=1;entryDx=0;entryDy=0;exitX=1;exitY=0.5;exitDx=0;exitDy=0;" edge="1" parent="WIyWlLk6GJQsqaUBKTNV-1" source="OJwY6KHNOnWyT61h1TXV-28" target="OJwY6KHNOnWyT61h1TXV-27">
          <mxGeometry width="50" height="50" relative="1" as="geometry">
            <mxPoint x="-170" y="220" as="sourcePoint" />
            <mxPoint x="-120" y="170" as="targetPoint" />
          </mxGeometry>
        </mxCell>
        <mxCell id="OJwY6KHNOnWyT61h1TXV-31" value="" style="endArrow=classic;html=1;rounded=0;entryX=0.5;entryY=1;entryDx=0;entryDy=0;exitX=0;exitY=0.5;exitDx=0;exitDy=0;" edge="1" parent="WIyWlLk6GJQsqaUBKTNV-1" source="OJwY6KHNOnWyT61h1TXV-28" target="OJwY6KHNOnWyT61h1TXV-26">
          <mxGeometry width="50" height="50" relative="1" as="geometry">
            <mxPoint x="-170" y="220" as="sourcePoint" />
            <mxPoint x="-120" y="170" as="targetPoint" />
          </mxGeometry>
        </mxCell>
        <mxCell id="OJwY6KHNOnWyT61h1TXV-34" value="" style="endArrow=classic;html=1;rounded=0;exitX=0;exitY=0.5;exitDx=0;exitDy=0;entryX=0.5;entryY=1;entryDx=0;entryDy=0;" edge="1" parent="WIyWlLk6GJQsqaUBKTNV-1" source="OJwY6KHNOnWyT61h1TXV-13" target="OJwY6KHNOnWyT61h1TXV-26">
          <mxGeometry width="50" height="50" relative="1" as="geometry">
            <mxPoint x="-170" y="220" as="sourcePoint" />
            <mxPoint x="-120" y="170" as="targetPoint" />
            <Array as="points">
              <mxPoint x="-120" y="280" />
            </Array>
          </mxGeometry>
        </mxCell>
        <mxCell id="OJwY6KHNOnWyT61h1TXV-35" value="Atributes" style="rounded=0;whiteSpace=wrap;html=1;" vertex="1" parent="WIyWlLk6GJQsqaUBKTNV-1">
          <mxGeometry x="560" y="205" width="120" height="60" as="geometry" />
        </mxCell>
        <mxCell id="OJwY6KHNOnWyT61h1TXV-36" value="N" style="endArrow=classic;html=1;rounded=0;entryX=0;entryY=0.5;entryDx=0;entryDy=0;exitX=1;exitY=0.5;exitDx=0;exitDy=0;startArrow=none;" edge="1" parent="WIyWlLk6GJQsqaUBKTNV-1" source="OJwY6KHNOnWyT61h1TXV-38" target="OJwY6KHNOnWyT61h1TXV-35">
          <mxGeometry width="50" height="50" relative="1" as="geometry">
            <mxPoint x="300" y="220" as="sourcePoint" />
            <mxPoint x="350" y="170" as="targetPoint" />
          </mxGeometry>
        </mxCell>
        <mxCell id="OJwY6KHNOnWyT61h1TXV-38" value="have" style="rhombus;whiteSpace=wrap;html=1;" vertex="1" parent="WIyWlLk6GJQsqaUBKTNV-1">
          <mxGeometry x="400" y="215" width="70" height="40" as="geometry" />
        </mxCell>
        <mxCell id="OJwY6KHNOnWyT61h1TXV-39" value="M" style="endArrow=none;html=1;rounded=0;entryX=0;entryY=0.5;entryDx=0;entryDy=0;exitX=1;exitY=0.5;exitDx=0;exitDy=0;" edge="1" parent="WIyWlLk6GJQsqaUBKTNV-1" source="OJwY6KHNOnWyT61h1TXV-0" target="OJwY6KHNOnWyT61h1TXV-38">
          <mxGeometry width="50" height="50" relative="1" as="geometry">
            <mxPoint x="330" y="235" as="sourcePoint" />
            <mxPoint x="560" y="235" as="targetPoint" />
          </mxGeometry>
        </mxCell>
        <mxCell id="OJwY6KHNOnWyT61h1TXV-41" value="N" style="endArrow=classic;html=1;rounded=0;exitX=0;exitY=0.5;exitDx=0;exitDy=0;entryX=1;entryY=0.5;entryDx=0;entryDy=0;startArrow=none;" edge="1" parent="WIyWlLk6GJQsqaUBKTNV-1" source="OJwY6KHNOnWyT61h1TXV-40" target="OJwY6KHNOnWyT61h1TXV-35">
          <mxGeometry width="50" height="50" relative="1" as="geometry">
            <mxPoint x="810" y="220" as="sourcePoint" />
            <mxPoint x="860" y="170" as="targetPoint" />
          </mxGeometry>
        </mxCell>
        <mxCell id="OJwY6KHNOnWyT61h1TXV-40" value="have" style="rhombus;whiteSpace=wrap;html=1;" vertex="1" parent="WIyWlLk6GJQsqaUBKTNV-1">
          <mxGeometry x="757" y="215" width="70" height="40" as="geometry" />
        </mxCell>
        <mxCell id="OJwY6KHNOnWyT61h1TXV-42" value="M" style="endArrow=none;html=1;rounded=0;exitX=0;exitY=0.5;exitDx=0;exitDy=0;entryX=1;entryY=0.5;entryDx=0;entryDy=0;" edge="1" parent="WIyWlLk6GJQsqaUBKTNV-1" source="OJwY6KHNOnWyT61h1TXV-4" target="OJwY6KHNOnWyT61h1TXV-40">
          <mxGeometry width="50" height="50" relative="1" as="geometry">
            <mxPoint x="910" y="235" as="sourcePoint" />
            <mxPoint x="680" y="235" as="targetPoint" />
          </mxGeometry>
        </mxCell>
        <mxCell id="OJwY6KHNOnWyT61h1TXV-43" value="Backpack" style="rounded=0;whiteSpace=wrap;html=1;" vertex="1" parent="WIyWlLk6GJQsqaUBKTNV-1">
          <mxGeometry x="10" y="-190" width="120" height="60" as="geometry" />
        </mxCell>
        <mxCell id="OJwY6KHNOnWyT61h1TXV-44" value="" style="endArrow=classic;html=1;rounded=0;exitX=0.5;exitY=0;exitDx=0;exitDy=0;entryX=0.5;entryY=1;entryDx=0;entryDy=0;startArrow=none;" edge="1" parent="WIyWlLk6GJQsqaUBKTNV-1" source="OJwY6KHNOnWyT61h1TXV-45" target="OJwY6KHNOnWyT61h1TXV-43">
          <mxGeometry width="50" height="50" relative="1" as="geometry">
            <mxPoint x="360" y="90" as="sourcePoint" />
            <mxPoint x="410" y="40" as="targetPoint" />
          </mxGeometry>
        </mxCell>
        <mxCell id="OJwY6KHNOnWyT61h1TXV-45" value="Has" style="rhombus;whiteSpace=wrap;html=1;" vertex="1" parent="WIyWlLk6GJQsqaUBKTNV-1">
          <mxGeometry x="30" y="-80" width="80" height="30" as="geometry" />
        </mxCell>
        <mxCell id="OJwY6KHNOnWyT61h1TXV-46" value="" style="endArrow=none;html=1;rounded=0;exitX=0.5;exitY=0;exitDx=0;exitDy=0;entryX=0.5;entryY=1;entryDx=0;entryDy=0;" edge="1" parent="WIyWlLk6GJQsqaUBKTNV-1" source="OJwY6KHNOnWyT61h1TXV-27" target="OJwY6KHNOnWyT61h1TXV-45">
          <mxGeometry width="50" height="50" relative="1" as="geometry">
            <mxPoint x="70" y="-10" as="sourcePoint" />
            <mxPoint x="70" y="-130" as="targetPoint" />
          </mxGeometry>
        </mxCell>
      </root>
    </mxGraphModel>
  </diagram>
</mxfile>
